<?xml version="1.0" encoding="utf-8" standalone="no"?>
<!DOCTYPE svg PUBLIC "-//W3C//DTD SVG 1.1//EN"
  "http://www.w3.org/Graphics/SVG/1.1/DTD/svg11.dtd">
<svg xmlns:xlink="http://www.w3.org/1999/xlink" width="526.79952pt" height="317.99952pt" viewBox="0 0 526.79952 317.99952" xmlns="http://www.w3.org/2000/svg" version="1.1">
 <metadata>
  <rdf:RDF xmlns:dc="http://purl.org/dc/elements/1.1/" xmlns:cc="http://creativecommons.org/ns#" xmlns:rdf="http://www.w3.org/1999/02/22-rdf-syntax-ns#">
   <cc:Work>
    <dc:type rdf:resource="http://purl.org/dc/dcmitype/StillImage"/>
    <dc:date>2026-09-23T22:44:52.615673</dc:date>
    <dc:format>image/svg+xml</dc:format>
    <dc:creator>
     <cc:Agent>
      <dc:title>Matplotlib v3.10.6, https://matplotlib.org/</dc:title>
     </cc:Agent>
    </dc:creator>
   </cc:Work>
  </rdf:RDF>
 </metadata>
 <defs>
  <style type="text/css">*{stroke-linejoin: round; stroke-linecap: butt}</style>
 </defs>
 <g id="figure_1">
  <g id="patch_1">
   <path d="M 0 317.99952 
L 526.79952 317.99952 
L 526.79952 0 
L 0 0 
z
" style="fill: #ffffff"/>
  </g>
  <g id="axes_1">
   <g id="patch_2">
    <path d="M 43.78125 280.44327 
L 511.647958 280.44327 
L 511.647958 26.318125 
L 43.78125 26.318125 
z
" style="fill: #ffffff"/>
   </g>
   <g id="matplotlib.axis_1">
    <g id="xtick_1">
     <g id="line2d_1">
      <defs>
       <path id="maa1f01333a" d="M 0 0 
L 0 3.5 
" style="stroke: #000000; stroke-width: 0.8"/>
      </defs>
      <g>
       <use xlink:href="#maa1f01333a" x="43.78125" y="280.44327" style="stroke: #000000; stroke-width: 0.8"/>
      </g>
     </g>
     <g id="text_1">
      <!-- 0.0 -->
      <g transform="translate(35.829688 295.041707) scale(0.1 -0.1)">
       <defs>
        <path id="DejaVuSans-30" d="M 2034 4250 
Q 1547 4250 1301 3770 
Q 1056 3291 1056 2328 
Q 1056 1369 1301 889 
Q 1547 409 2034 409 
Q 2525 409 2770 889 
Q 3016 1369 3016 2328 
Q 3016 3291 2770 3770 
Q 2525 4250 2034 4250 
z
M 2034 4750 
Q 2819 4750 3233 4129 
Q 3647 3509 3647 2328 
Q 3647 1150 3233 529 
Q 2819 -91 2034 -91 
Q 1250 -91 836 529 
Q 422 1150 422 2328 
Q 422 3509 836 4129 
Q 1250 4750 2034 4750 
z
" transform="scale(0.015625)"/>
        <path id="DejaVuSans-2e" d="M 684 794 
L 1344 794 
L 1344 0 
L 684 0 
L 684 794 
z
" transform="scale(0.015625)"/>
       </defs>
       <use xlink:href="#DejaVuSans-30"/>
       <use xlink:href="#DejaVuSans-2e" transform="translate(63.623047 0)"/>
       <use xlink:href="#DejaVuSans-30" transform="translate(95.410156 0)"/>
      </g>
     </g>
    </g>
    <g id="xtick_2">
     <g id="line2d_2">
      <g>
       <use xlink:href="#maa1f01333a" x="137.354592" y="280.44327" style="stroke: #000000; stroke-width: 0.8"/>
      </g>
     </g>
     <g id="text_2">
      <!-- 0.2 -->
      <g transform="translate(129.403029 295.041707) scale(0.1 -0.1)">
       <defs>
        <path id="DejaVuSans-32" d="M 1228 531 
L 3431 531 
L 3431 0 
L 469 0 
L 469 531 
Q 828 903 1448 1529 
Q 2069 2156 2228 2338 
Q 2531 2678 2651 2914 
Q 2772 3150 2772 3378 
Q 2772 3750 2511 3984 
Q 2250 4219 1831 4219 
Q 1534 4219 1204 4116 
Q 875 4013 500 3803 
L 500 4441 
Q 881 4594 1212 4672 
Q 1544 4750 1819 4750 
Q 2544 4750 2975 4387 
Q 3406 4025 3406 3419 
Q 3406 3131 3298 2873 
Q 3191 2616 2906 2266 
Q 2828 2175 2409 1742 
Q 1991 1309 1228 531 
z
" transform="scale(0.015625)"/>
       </defs>
       <use xlink:href="#DejaVuSans-30"/>
       <use xlink:href="#DejaVuSans-2e" transform="translate(63.623047 0)"/>
       <use xlink:href="#DejaVuSans-32" transform="translate(95.410156 0)"/>
      </g>
     </g>
    </g>
    <g id="xtick_3">
     <g id="line2d_3">
      <g>
       <use xlink:href="#maa1f01333a" x="230.927933" y="280.44327" style="stroke: #000000; stroke-width: 0.8"/>
      </g>
     </g>
     <g id="text_3">
      <!-- 0.4 -->
      <g transform="translate(222.976371 295.041707) scale(0.1 -0.1)">
       <defs>
        <path id="DejaVuSans-34" d="M 2419 4116 
L 825 1625 
L 2419 1625 
L 2419 4116 
z
M 2253 4666 
L 3047 4666 
L 3047 1625 
L 3713 1625 
L 3713 1100 
L 3047 1100 
L 3047 0 
L 2419 0 
L 2419 1100 
L 313 1100 
L 313 1709 
L 2253 4666 
z
" transform="scale(0.015625)"/>
       </defs>
       <use xlink:href="#DejaVuSans-30"/>
       <use xlink:href="#DejaVuSans-2e" transform="translate(63.623047 0)"/>
       <use xlink:href="#DejaVuSans-34" transform="translate(95.410156 0)"/>
      </g>
     </g>
    </g>
    <g id="xtick_4">
     <g id="line2d_4">
      <g>
       <use xlink:href="#maa1f01333a" x="324.501275" y="280.44327" style="stroke: #000000; stroke-width: 0.8"/>
      </g>
     </g>
     <g id="text_4">
      <!-- 0.6 -->
      <g transform="translate(316.549712 295.041707) scale(0.1 -0.1)">
       <defs>
        <path id="DejaVuSans-36" d="M 2113 2584 
Q 1688 2584 1439 2293 
Q 1191 2003 1191 1497 
Q 1191 994 1439 701 
Q 1688 409 2113 409 
Q 2538 409 2786 701 
Q 3034 994 3034 1497 
Q 3034 2003 2786 2293 
Q 2538 2584 2113 2584 
z
M 3366 4563 
L 3366 3988 
Q 3128 4100 2886 4159 
Q 2644 4219 2406 4219 
Q 1781 4219 1451 3797 
Q 1122 3375 1075 2522 
Q 1259 2794 1537 2939 
Q 1816 3084 2150 3084 
Q 2853 3084 3261 2657 
Q 3669 2231 3669 1497 
Q 3669 778 3244 343 
Q 2819 -91 2113 -91 
Q 1303 -91 875 529 
Q 447 1150 447 2328 
Q 447 3434 972 4092 
Q 1497 4750 2381 4750 
Q 2619 4750 2861 4703 
Q 3103 4656 3366 4563 
z
" transform="scale(0.015625)"/>
       </defs>
       <use xlink:href="#DejaVuSans-30"/>
       <use xlink:href="#DejaVuSans-2e" transform="translate(63.623047 0)"/>
       <use xlink:href="#DejaVuSans-36" transform="translate(95.410156 0)"/>
      </g>
     </g>
    </g>
    <g id="xtick_5">
     <g id="line2d_5">
      <g>
       <use xlink:href="#maa1f01333a" x="418.074616" y="280.44327" style="stroke: #000000; stroke-width: 0.8"/>
      </g>
     </g>
     <g id="text_5">
      <!-- 0.8 -->
      <g transform="translate(410.123054 295.041707) scale(0.1 -0.1)">
       <defs>
        <path id="DejaVuSans-38" d="M 2034 2216 
Q 1584 2216 1326 1975 
Q 1069 1734 1069 1313 
Q 1069 891 1326 650 
Q 1584 409 2034 409 
Q 2484 409 2743 651 
Q 3003 894 3003 1313 
Q 3003 1734 2745 1975 
Q 2488 2216 2034 2216 
z
M 1403 2484 
Q 997 2584 770 2862 
Q 544 3141 544 3541 
Q 544 4100 942 4425 
Q 1341 4750 2034 4750 
Q 2731 4750 3128 4425 
Q 3525 4100 3525 3541 
Q 3525 3141 3298 2862 
Q 3072 2584 2669 2484 
Q 3125 2378 3379 2068 
Q 3634 1759 3634 1313 
Q 3634 634 3220 271 
Q 2806 -91 2034 -91 
Q 1263 -91 848 271 
Q 434 634 434 1313 
Q 434 1759 690 2068 
Q 947 2378 1403 2484 
z
M 1172 3481 
Q 1172 3119 1398 2916 
Q 1625 2713 2034 2713 
Q 2441 2713 2670 2916 
Q 2900 3119 2900 3481 
Q 2900 3844 2670 4047 
Q 2441 4250 2034 4250 
Q 1625 4250 1398 4047 
Q 1172 3844 1172 3481 
z
" transform="scale(0.015625)"/>
       </defs>
       <use xlink:href="#DejaVuSans-30"/>
       <use xlink:href="#DejaVuSans-2e" transform="translate(63.623047 0)"/>
       <use xlink:href="#DejaVuSans-38" transform="translate(95.410156 0)"/>
      </g>
     </g>
    </g>
    <g id="xtick_6">
     <g id="line2d_6">
      <g>
       <use xlink:href="#maa1f01333a" x="511.647958" y="280.44327" style="stroke: #000000; stroke-width: 0.8"/>
      </g>
     </g>
     <g id="text_6">
      <!-- 1.0 -->
      <g transform="translate(503.696395 295.041707) scale(0.1 -0.1)">
       <defs>
        <path id="DejaVuSans-31" d="M 794 531 
L 1825 531 
L 1825 4091 
L 703 3866 
L 703 4441 
L 1819 4666 
L 2450 4666 
L 2450 531 
L 3481 531 
L 3481 0 
L 794 0 
L 794 531 
z
" transform="scale(0.015625)"/>
       </defs>
       <use xlink:href="#DejaVuSans-31"/>
       <use xlink:href="#DejaVuSans-2e" transform="translate(63.623047 0)"/>
       <use xlink:href="#DejaVuSans-30" transform="translate(95.410156 0)"/>
      </g>
     </g>
    </g>
    <g id="text_7">
     <!-- False-positive rate -->
     <g transform="translate(231.998979 308.719832) scale(0.1 -0.1)">
      <defs>
       <path id="DejaVuSans-46" d="M 628 4666 
L 3309 4666 
L 3309 4134 
L 1259 4134 
L 1259 2759 
L 3109 2759 
L 3109 2228 
L 1259 2228 
L 1259 0 
L 628 0 
L 628 4666 
z
" transform="scale(0.015625)"/>
       <path id="DejaVuSans-61" d="M 2194 1759 
Q 1497 1759 1228 1600 
Q 959 1441 959 1056 
Q 959 750 1161 570 
Q 1363 391 1709 391 
Q 2188 391 2477 730 
Q 2766 1069 2766 1631 
L 2766 1759 
L 2194 1759 
z
M 3341 1997 
L 3341 0 
L 2766 0 
L 2766 531 
Q 2569 213 2275 61 
Q 1981 -91 1556 -91 
Q 1019 -91 701 211 
Q 384 513 384 1019 
Q 384 1609 779 1909 
Q 1175 2209 1959 2209 
L 2766 2209 
L 2766 2266 
Q 2766 2663 2505 2880 
Q 2244 3097 1772 3097 
Q 1472 3097 1187 3025 
Q 903 2953 641 2809 
L 641 3341 
Q 956 3463 1253 3523 
Q 1550 3584 1831 3584 
Q 2591 3584 2966 3190 
Q 3341 2797 3341 1997 
z
" transform="scale(0.015625)"/>
       <path id="DejaVuSans-6c" d="M 603 4863 
L 1178 4863 
L 1178 0 
L 603 0 
L 603 4863 
z
" transform="scale(0.015625)"/>
       <path id="DejaVuSans-73" d="M 2834 3397 
L 2834 2853 
Q 2591 2978 2328 3040 
Q 2066 3103 1784 3103 
Q 1356 3103 1142 2972 
Q 928 2841 928 2578 
Q 928 2378 1081 2264 
Q 1234 2150 1697 2047 
L 1894 2003 
Q 2506 1872 2764 1633 
Q 3022 1394 3022 966 
Q 3022 478 2636 193 
Q 2250 -91 1575 -91 
Q 1294 -91 989 -36 
Q 684 19 347 128 
L 347 722 
Q 666 556 975 473 
Q 1284 391 1588 391 
Q 1994 391 2212 530 
Q 2431 669 2431 922 
Q 2431 1156 2273 1281 
Q 2116 1406 1581 1522 
L 1381 1569 
Q 847 1681 609 1914 
Q 372 2147 372 2553 
Q 372 3047 722 3315 
Q 1072 3584 1716 3584 
Q 2034 3584 2315 3537 
Q 2597 3491 2834 3397 
z
" transform="scale(0.015625)"/>
       <path id="DejaVuSans-65" d="M 3597 1894 
L 3597 1613 
L 953 1613 
Q 991 1019 1311 708 
Q 1631 397 2203 397 
Q 2534 397 2845 478 
Q 3156 559 3463 722 
L 3463 178 
Q 3153 47 2828 -22 
Q 2503 -91 2169 -91 
Q 1331 -91 842 396 
Q 353 884 353 1716 
Q 353 2575 817 3079 
Q 1281 3584 2069 3584 
Q 2775 3584 3186 3129 
Q 3597 2675 3597 1894 
z
M 3022 2063 
Q 3016 2534 2758 2815 
Q 2500 3097 2075 3097 
Q 1594 3097 1305 2825 
Q 1016 2553 972 2059 
L 3022 2063 
z
" transform="scale(0.015625)"/>
       <path id="DejaVuSans-2d" d="M 313 2009 
L 1997 2009 
L 1997 1497 
L 313 1497 
L 313 2009 
z
" transform="scale(0.015625)"/>
       <path id="DejaVuSans-70" d="M 1159 525 
L 1159 -1331 
L 581 -1331 
L 581 3500 
L 1159 3500 
L 1159 2969 
Q 1341 3281 1617 3432 
Q 1894 3584 2278 3584 
Q 2916 3584 3314 3078 
Q 3713 2572 3713 1747 
Q 3713 922 3314 415 
Q 2916 -91 2278 -91 
Q 1894 -91 1617 61 
Q 1341 213 1159 525 
z
M 3116 1747 
Q 3116 2381 2855 2742 
Q 2594 3103 2138 3103 
Q 1681 3103 1420 2742 
Q 1159 2381 1159 1747 
Q 1159 1113 1420 752 
Q 1681 391 2138 391 
Q 2594 391 2855 752 
Q 3116 1113 3116 1747 
z
" transform="scale(0.015625)"/>
       <path id="DejaVuSans-6f" d="M 1959 3097 
Q 1497 3097 1228 2736 
Q 959 2375 959 1747 
Q 959 1119 1226 758 
Q 1494 397 1959 397 
Q 2419 397 2687 759 
Q 2956 1122 2956 1747 
Q 2956 2369 2687 2733 
Q 2419 3097 1959 3097 
z
M 1959 3584 
Q 2709 3584 3137 3096 
Q 3566 2609 3566 1747 
Q 3566 888 3137 398 
Q 2709 -91 1959 -91 
Q 1206 -91 779 398 
Q 353 888 353 1747 
Q 353 2609 779 3096 
Q 1206 3584 1959 3584 
z
" transform="scale(0.015625)"/>
       <path id="DejaVuSans-69" d="M 603 3500 
L 1178 3500 
L 1178 0 
L 603 0 
L 603 3500 
z
M 603 4863 
L 1178 4863 
L 1178 4134 
L 603 4134 
L 603 4863 
z
" transform="scale(0.015625)"/>
       <path id="DejaVuSans-74" d="M 1172 4494 
L 1172 3500 
L 2356 3500 
L 2356 3053 
L 1172 3053 
L 1172 1153 
Q 1172 725 1289 603 
Q 1406 481 1766 481 
L 2356 481 
L 2356 0 
L 1766 0 
Q 1100 0 847 248 
Q 594 497 594 1153 
L 594 3053 
L 172 3053 
L 172 3500 
L 594 3500 
L 594 4494 
L 1172 4494 
z
" transform="scale(0.015625)"/>
       <path id="DejaVuSans-76" d="M 191 3500 
L 800 3500 
L 1894 563 
L 2988 3500 
L 3597 3500 
L 2284 0 
L 1503 0 
L 191 3500 
z
" transform="scale(0.015625)"/>
       <path id="DejaVuSans-20" transform="scale(0.015625)"/>
       <path id="DejaVuSans-72" d="M 2631 2963 
Q 2534 3019 2420 3045 
Q 2306 3072 2169 3072 
Q 1681 3072 1420 2755 
Q 1159 2438 1159 1844 
L 1159 0 
L 581 0 
L 581 3500 
L 1159 3500 
L 1159 2956 
Q 1341 3275 1631 3429 
Q 1922 3584 2338 3584 
Q 2397 3584 2469 3576 
Q 2541 3569 2628 3553 
L 2631 2963 
z
" transform="scale(0.015625)"/>
      </defs>
      <use xlink:href="#DejaVuSans-46"/>
      <use xlink:href="#DejaVuSans-61" transform="translate(48.394531 0)"/>
      <use xlink:href="#DejaVuSans-6c" transform="translate(109.673828 0)"/>
      <use xlink:href="#DejaVuSans-73" transform="translate(137.457031 0)"/>
      <use xlink:href="#DejaVuSans-65" transform="translate(189.556641 0)"/>
      <use xlink:href="#DejaVuSans-2d" transform="translate(251.080078 0)"/>
      <use xlink:href="#DejaVuSans-70" transform="translate(287.164062 0)"/>
      <use xlink:href="#DejaVuSans-6f" transform="translate(350.640625 0)"/>
      <use xlink:href="#DejaVuSans-73" transform="translate(411.822266 0)"/>
      <use xlink:href="#DejaVuSans-69" transform="translate(463.921875 0)"/>
      <use xlink:href="#DejaVuSans-74" transform="translate(491.705078 0)"/>
      <use xlink:href="#DejaVuSans-69" transform="translate(530.914062 0)"/>
      <use xlink:href="#DejaVuSans-76" transform="translate(558.697266 0)"/>
      <use xlink:href="#DejaVuSans-65" transform="translate(617.876953 0)"/>
      <use xlink:href="#DejaVuSans-20" transform="translate(679.400391 0)"/>
      <use xlink:href="#DejaVuSans-72" transform="translate(711.1875 0)"/>
      <use xlink:href="#DejaVuSans-61" transform="translate(752.300781 0)"/>
      <use xlink:href="#DejaVuSans-74" transform="translate(813.580078 0)"/>
      <use xlink:href="#DejaVuSans-65" transform="translate(852.789062 0)"/>
     </g>
    </g>
   </g>
   <g id="matplotlib.axis_2">
    <g id="ytick_1">
     <g id="line2d_7">
      <path d="M 43.78125 280.44327 
L 511.647958 280.44327 
" clip-path="url(#p1eb117bead)" style="fill: none; stroke: #b0b0b0; stroke-opacity: 0.25; stroke-width: 0.7; stroke-linecap: square"/>
     </g>
     <g id="line2d_8">
      <defs>
       <path id="m1c45bcfb06" d="M 0 0 
L -3.5 0 
" style="stroke: #000000; stroke-width: 0.8"/>
      </defs>
      <g>
       <use xlink:href="#m1c45bcfb06" x="43.78125" y="280.44327" style="stroke: #000000; stroke-width: 0.8"/>
      </g>
     </g>
     <g id="text_8">
      <!-- 0.0 -->
      <g transform="translate(20.878125 284.242489) scale(0.1 -0.1)">
       <use xlink:href="#DejaVuSans-30"/>
       <use xlink:href="#DejaVuSans-2e" transform="translate(63.623047 0)"/>
       <use xlink:href="#DejaVuSans-30" transform="translate(95.410156 0)"/>
      </g>
     </g>
    </g>
    <g id="ytick_2">
     <g id="line2d_9">
      <path d="M 43.78125 229.618241 
L 511.647958 229.618241 
" clip-path="url(#p1eb117bead)" style="fill: none; stroke: #b0b0b0; stroke-opacity: 0.25; stroke-width: 0.7; stroke-linecap: square"/>
     </g>
     <g id="line2d_10">
      <g>
       <use xlink:href="#m1c45bcfb06" x="43.78125" y="229.618241" style="stroke: #000000; stroke-width: 0.8"/>
      </g>
     </g>
     <g id="text_9">
      <!-- 0.2 -->
      <g transform="translate(20.878125 233.41746) scale(0.1 -0.1)">
       <use xlink:href="#DejaVuSans-30"/>
       <use xlink:href="#DejaVuSans-2e" transform="translate(63.623047 0)"/>
       <use xlink:href="#DejaVuSans-32" transform="translate(95.410156 0)"/>
      </g>
     </g>
    </g>
    <g id="ytick_3">
     <g id="line2d_11">
      <path d="M 43.78125 178.793212 
L 511.647958 178.793212 
" clip-path="url(#p1eb117bead)" style="fill: none; stroke: #b0b0b0; stroke-opacity: 0.25; stroke-width: 0.7; stroke-linecap: square"/>
     </g>
     <g id="line2d_12">
      <g>
       <use xlink:href="#m1c45bcfb06" x="43.78125" y="178.793212" style="stroke: #000000; stroke-width: 0.8"/>
      </g>
     </g>
     <g id="text_10">
      <!-- 0.4 -->
      <g transform="translate(20.878125 182.592431) scale(0.1 -0.1)">
       <use xlink:href="#DejaVuSans-30"/>
       <use xlink:href="#DejaVuSans-2e" transform="translate(63.623047 0)"/>
       <use xlink:href="#DejaVuSans-34" transform="translate(95.410156 0)"/>
      </g>
     </g>
    </g>
    <g id="ytick_4">
     <g id="line2d_13">
      <path d="M 43.78125 127.968183 
L 511.647958 127.968183 
" clip-path="url(#p1eb117bead)" style="fill: none; stroke: #b0b0b0; stroke-opacity: 0.25; stroke-width: 0.7; stroke-linecap: square"/>
     </g>
     <g id="line2d_14">
      <g>
       <use xlink:href="#m1c45bcfb06" x="43.78125" y="127.968183" style="stroke: #000000; stroke-width: 0.8"/>
      </g>
     </g>
     <g id="text_11">
      <!-- 0.6 -->
      <g transform="translate(20.878125 131.767402) scale(0.1 -0.1)">
       <use xlink:href="#DejaVuSans-30"/>
       <use xlink:href="#DejaVuSans-2e" transform="translate(63.623047 0)"/>
       <use xlink:href="#DejaVuSans-36" transform="translate(95.410156 0)"/>
      </g>
     </g>
    </g>
    <g id="ytick_5">
     <g id="line2d_15">
      <path d="M 43.78125 77.143154 
L 511.647958 77.143154 
" clip-path="url(#p1eb117bead)" style="fill: none; stroke: #b0b0b0; stroke-opacity: 0.25; stroke-width: 0.7; stroke-linecap: square"/>
     </g>
     <g id="line2d_16">
      <g>
       <use xlink:href="#m1c45bcfb06" x="43.78125" y="77.143154" style="stroke: #000000; stroke-width: 0.8"/>
      </g>
     </g>
     <g id="text_12">
      <!-- 0.8 -->
      <g transform="translate(20.878125 80.942373) scale(0.1 -0.1)">
       <use xlink:href="#DejaVuSans-30"/>
       <use xlink:href="#DejaVuSans-2e" transform="translate(63.623047 0)"/>
       <use xlink:href="#DejaVuSans-38" transform="translate(95.410156 0)"/>
      </g>
     </g>
    </g>
    <g id="ytick_6">
     <g id="line2d_17">
      <path d="M 43.78125 26.318125 
L 511.647958 26.318125 
" clip-path="url(#p1eb117bead)" style="fill: none; stroke: #b0b0b0; stroke-opacity: 0.25; stroke-width: 0.7; stroke-linecap: square"/>
     </g>
     <g id="line2d_18">
      <g>
       <use xlink:href="#m1c45bcfb06" x="43.78125" y="26.318125" style="stroke: #000000; stroke-width: 0.8"/>
      </g>
     </g>
     <g id="text_13">
      <!-- 1.0 -->
      <g transform="translate(20.878125 30.117344) scale(0.1 -0.1)">
       <use xlink:href="#DejaVuSans-31"/>
       <use xlink:href="#DejaVuSans-2e" transform="translate(63.623047 0)"/>
       <use xlink:href="#DejaVuSans-30" transform="translate(95.410156 0)"/>
      </g>
     </g>
    </g>
    <g id="text_14">
     <!-- True-positive rate -->
     <g transform="translate(14.798438 197.159604) rotate(-90) scale(0.1 -0.1)">
      <defs>
       <path id="DejaVuSans-54" d="M -19 4666 
L 3928 4666 
L 3928 4134 
L 2272 4134 
L 2272 0 
L 1638 0 
L 1638 4134 
L -19 4134 
L -19 4666 
z
" transform="scale(0.015625)"/>
       <path id="DejaVuSans-75" d="M 544 1381 
L 544 3500 
L 1119 3500 
L 1119 1403 
Q 1119 906 1312 657 
Q 1506 409 1894 409 
Q 2359 409 2629 706 
Q 2900 1003 2900 1516 
L 2900 3500 
L 3475 3500 
L 3475 0 
L 2900 0 
L 2900 538 
Q 2691 219 2414 64 
Q 2138 -91 1772 -91 
Q 1169 -91 856 284 
Q 544 659 544 1381 
z
M 1991 3584 
L 1991 3584 
z
" transform="scale(0.015625)"/>
      </defs>
      <use xlink:href="#DejaVuSans-54"/>
      <use xlink:href="#DejaVuSans-72" transform="translate(46.333984 0)"/>
      <use xlink:href="#DejaVuSans-75" transform="translate(87.447266 0)"/>
      <use xlink:href="#DejaVuSans-65" transform="translate(150.826172 0)"/>
      <use xlink:href="#DejaVuSans-2d" transform="translate(212.349609 0)"/>
      <use xlink:href="#DejaVuSans-70" transform="translate(248.433594 0)"/>
      <use xlink:href="#DejaVuSans-6f" transform="translate(311.910156 0)"/>
      <use xlink:href="#DejaVuSans-73" transform="translate(373.091797 0)"/>
      <use xlink:href="#DejaVuSans-69" transform="translate(425.191406 0)"/>
      <use xlink:href="#DejaVuSans-74" transform="translate(452.974609 0)"/>
      <use xlink:href="#DejaVuSans-69" transform="translate(492.183594 0)"/>
      <use xlink:href="#DejaVuSans-76" transform="translate(519.966797 0)"/>
      <use xlink:href="#DejaVuSans-65" transform="translate(579.146484 0)"/>
      <use xlink:href="#DejaVuSans-20" transform="translate(640.669922 0)"/>
      <use xlink:href="#DejaVuSans-72" transform="translate(672.457031 0)"/>
      <use xlink:href="#DejaVuSans-61" transform="translate(713.570312 0)"/>
      <use xlink:href="#DejaVuSans-74" transform="translate(774.849609 0)"/>
      <use xlink:href="#DejaVuSans-65" transform="translate(814.058594 0)"/>
     </g>
    </g>
   </g>
   <g id="line2d_19">
    <path d="M 43.78125 280.44327 
L 43.909292 277.710742 
L 44.293419 277.710742 
L 44.293419 274.978213 
L 44.421462 274.978213 
L 44.421462 273.611949 
L 44.805589 273.611949 
L 44.805589 270.87942 
L 45.189716 270.87942 
L 45.189716 261.315571 
L 45.317758 261.315571 
L 45.317758 258.583042 
L 45.4458 258.583042 
L 45.4458 257.216778 
L 45.573843 257.216778 
L 45.573843 253.117986 
L 47.110351 253.117986 
L 47.110351 251.751721 
L 47.238393 251.751721 
L 47.494478 250.385457 
L 47.494478 247.652929 
L 47.62252 247.652929 
L 47.62252 246.286664 
L 47.878605 246.286664 
L 47.878605 244.9204 
L 48.006647 244.9204 
L 48.13469 243.554136 
L 48.646859 243.554136 
L 48.646859 240.821608 
L 49.159028 240.821608 
L 49.159028 239.455343 
L 49.927282 239.455343 
L 49.927282 236.722815 
L 50.567494 236.722815 
L 50.567494 233.990287 
L 51.079663 233.990287 
L 51.079663 232.624022 
L 51.207706 232.624022 
L 51.207706 231.257758 
L 51.335748 231.257758 
L 51.335748 229.891494 
L 51.719875 229.891494 
L 51.719875 227.158965 
L 51.97596 227.158965 
L 51.97596 221.693909 
L 52.104002 221.693909 
L 52.104002 220.327644 
L 52.232044 220.327644 
L 52.232044 218.96138 
L 52.616171 218.96138 
L 52.744214 217.595116 
L 52.744214 214.862587 
L 53.256383 214.862587 
L 53.256383 213.496323 
L 53.384425 213.496323 
L 53.384425 212.130059 
L 54.536806 212.130059 
L 54.536806 210.763795 
L 55.305061 210.763795 
L 55.305061 209.397531 
L 55.81723 209.397531 
L 55.81723 208.031266 
L 56.841569 208.031266 
L 56.841569 206.665002 
L 58.634161 206.665002 
L 58.634161 203.932474 
L 58.890246 203.932474 
L 58.890246 202.566209 
L 59.530458 202.566209 
L 59.530458 201.199945 
L 61.579135 201.199945 
L 61.579135 199.833681 
L 61.83522 199.833681 
L 61.83522 197.101153 
L 62.475432 197.101153 
L 62.475432 194.368624 
L 63.371728 194.368624 
L 63.371728 193.00236 
L 63.49977 193.00236 
L 63.49977 191.636096 
L 63.755855 191.636096 
L 63.883897 188.903567 
L 66.444744 188.903567 
L 66.444744 187.537303 
L 67.212998 187.537303 
L 67.212998 184.804775 
L 68.621464 184.804775 
L 68.621464 183.43851 
L 69.645803 183.43851 
L 69.901887 182.072246 
L 70.670141 182.072246 
L 70.798184 180.705982 
L 72.078607 180.705982 
L 72.078607 179.339718 
L 72.462734 179.339718 
L 72.462734 177.973453 
L 73.8712 177.973453 
L 73.8712 176.607189 
L 73.999242 176.607189 
L 73.999242 175.240925 
L 74.639454 175.240925 
L 74.639454 173.874661 
L 75.151623 173.874661 
L 75.151623 172.508397 
L 75.791835 172.508397 
L 75.791835 171.142132 
L 75.919877 169.775868 
L 75.919877 168.409604 
L 77.328343 168.409604 
L 77.328343 167.04334 
L 77.584428 167.04334 
L 77.584428 165.677075 
L 77.840512 165.677075 
L 77.840512 164.310811 
L 77.968555 164.310811 
L 77.968555 162.944547 
L 78.864851 162.944547 
L 78.864851 160.212019 
L 79.120936 160.212019 
L 79.248978 158.845754 
L 79.505063 158.845754 
L 79.505063 157.47949 
L 80.017232 157.47949 
L 80.017232 156.113226 
L 80.657444 156.113226 
L 80.657444 153.380697 
L 81.041571 153.380697 
L 81.041571 152.014433 
L 81.169613 152.014433 
L 81.169613 150.648169 
L 81.55374 150.648169 
L 81.55374 149.281905 
L 82.321994 149.281905 
L 82.321994 147.915641 
L 82.450036 147.915641 
L 82.578079 145.183112 
L 82.834163 145.183112 
L 82.834163 143.816848 
L 82.962206 143.816848 
L 82.962206 142.450584 
L 84.626756 142.450584 
L 84.626756 141.08432 
L 85.779137 141.08432 
L 85.779137 139.718055 
L 86.163264 139.718055 
L 86.163264 138.351791 
L 86.291307 138.351791 
L 86.291307 136.985527 
L 87.699772 136.985527 
L 87.699772 135.619263 
L 88.980196 135.619263 
L 88.980196 134.252998 
L 89.364323 134.252998 
L 89.364323 132.886734 
L 89.876492 132.886734 
L 89.876492 131.52047 
L 99.60771 131.52047 
L 99.60771 130.154206 
L 102.680726 130.154206 
L 102.680726 127.421677 
L 103.192895 127.421677 
L 103.192895 126.055413 
L 105.497658 126.055413 
L 105.497658 124.689149 
L 105.753742 124.689149 
L 105.753742 123.322885 
L 105.881785 123.322885 
L 105.881785 121.95662 
L 106.521996 121.95662 
L 106.521996 120.590356 
L 107.546335 120.590356 
L 107.546335 119.224092 
L 107.674377 119.224092 
L 107.674377 117.857828 
L 108.186547 117.857828 
L 108.186547 116.491564 
L 112.027817 116.491564 
L 112.027817 115.125299 
L 114.588664 115.125299 
L 114.588664 113.759035 
L 120.862738 113.759035 
L 120.862738 112.392771 
L 122.271204 112.392771 
L 122.271204 111.026507 
L 123.039458 111.026507 
L 123.039458 109.660242 
L 125.728347 109.660242 
L 125.728347 106.927714 
L 125.984432 106.927714 
L 126.112474 105.56145 
L 127.905067 105.56145 
L 127.905067 102.828921 
L 128.545279 102.828921 
L 128.545279 101.462657 
L 129.69766 101.462657 
L 129.69766 100.096393 
L 134.179141 100.096393 
L 134.179141 98.730129 
L 135.71565 98.730129 
L 135.71565 97.363864 
L 139.300835 97.363864 
L 139.300835 95.9976 
L 145.57491 95.9976 
L 145.57491 94.631336 
L 148.775968 94.631336 
L 148.775968 93.265072 
L 156.842636 93.265072 
L 156.842636 91.898808 
L 157.61089 91.898808 
L 157.61089 90.532543 
L 168.750573 90.532543 
L 168.750573 89.166279 
L 169.1347 89.166279 
L 169.1347 87.800015 
L 189.749517 87.800015 
L 189.749517 86.433751 
L 190.645813 86.433751 
L 190.645813 85.067486 
L 197.560099 85.067486 
L 197.560099 83.701222 
L 206.523063 83.701222 
L 206.523063 82.334958 
L 211.516714 82.334958 
L 211.516714 80.968694 
L 211.900841 80.968694 
L 211.900841 79.60243 
L 220.60772 79.60243 
L 220.60772 78.236165 
L 230.851108 78.236165 
L 230.851108 76.869901 
L 234.436293 76.869901 
L 234.436293 75.503637 
L 235.332589 75.503637 
L 235.332589 74.137373 
L 235.588674 74.137373 
L 235.588674 71.404844 
L 244.167511 71.404844 
L 244.167511 70.03858 
L 245.063807 70.03858 
L 245.063807 68.672316 
L 250.825713 68.672316 
L 250.825713 67.306052 
L 265.806666 67.306052 
L 265.806666 65.939787 
L 280.531535 65.939787 
L 280.531535 64.573523 
L 286.677567 64.573523 
L 286.677567 63.207259 
L 287.317779 63.207259 
L 287.317779 61.840995 
L 293.719896 61.840995 
L 293.719896 60.474731 
L 294.872277 60.474731 
L 294.872277 59.108466 
L 296.408785 59.108466 
L 296.408785 57.742202 
L 297.945293 57.742202 
L 298.073336 56.375938 
L 306.396088 56.375938 
L 306.396088 55.009674 
L 353.259584 55.009674 
L 353.259584 53.643409 
L 354.796092 53.643409 
L 354.796092 52.277145 
L 355.308261 52.277145 
L 355.308261 50.910881 
L 375.666993 50.910881 
L 375.795036 49.544617 
L 378.611967 49.544617 
L 380.020433 46.812088 
L 384.24583 46.812088 
L 384.24583 45.445824 
L 384.501915 45.445824 
L 384.501915 44.07956 
L 425.091336 44.07956 
L 425.091336 42.713296 
L 433.286046 42.713296 
L 433.414088 41.347031 
L 446.602449 41.347031 
L 446.730492 39.980767 
L 454.669117 39.980767 
L 455.821498 37.248239 
L 455.94954 37.248239 
L 456.333667 35.881975 
L 460.302979 35.881975 
L 460.431022 33.149446 
L 464.656419 33.149446 
L 464.912504 31.783182 
L 471.058536 31.783182 
L 471.058536 30.416918 
L 476.948484 30.416918 
L 477.204568 27.684389 
L 490.136845 27.684389 
L 492.185522 26.318125 
L 511.647958 26.318125 
L 511.647958 26.318125 
" clip-path="url(#p1eb117bead)" style="fill: none; stroke: #1f4e79; stroke-width: 1.8; stroke-linecap: square"/>
   </g>
   <g id="line2d_20">
    <path d="M 43.78125 280.44327 
L 511.647958 26.318125 
" clip-path="url(#p1eb117bead)" style="fill: none; stroke-dasharray: 5.55,2.4; stroke-dashoffset: 0; stroke: #777777; stroke-width: 1.5"/>
   </g>
   <g id="patch_3">
    <path d="M 43.78125 280.44327 
L 43.78125 26.318125 
" style="fill: none; stroke: #000000; stroke-width: 0.8; stroke-linejoin: miter; stroke-linecap: square"/>
   </g>
   <g id="patch_4">
    <path d="M 511.647958 280.44327 
L 511.647958 26.318125 
" style="fill: none; stroke: #000000; stroke-width: 0.8; stroke-linejoin: miter; stroke-linecap: square"/>
   </g>
   <g id="patch_5">
    <path d="M 43.78125 280.44327 
L 511.647958 280.44327 
" style="fill: none; stroke: #000000; stroke-width: 0.8; stroke-linejoin: miter; stroke-linecap: square"/>
   </g>
   <g id="patch_6">
    <path d="M 43.78125 26.318125 
L 511.647958 26.318125 
" style="fill: none; stroke: #000000; stroke-width: 0.8; stroke-linejoin: miter; stroke-linecap: square"/>
   </g>
   <g id="text_15">
    <!-- Stockout classification: ROC curve -->
    <g transform="translate(175.056479 16.318125) scale(0.12 -0.12)">
     <defs>
      <path id="DejaVuSans-53" d="M 3425 4513 
L 3425 3897 
Q 3066 4069 2747 4153 
Q 2428 4238 2131 4238 
Q 1616 4238 1336 4038 
Q 1056 3838 1056 3469 
Q 1056 3159 1242 3001 
Q 1428 2844 1947 2747 
L 2328 2669 
Q 3034 2534 3370 2195 
Q 3706 1856 3706 1288 
Q 3706 609 3251 259 
Q 2797 -91 1919 -91 
Q 1588 -91 1214 -16 
Q 841 59 441 206 
L 441 856 
Q 825 641 1194 531 
Q 1563 422 1919 422 
Q 2459 422 2753 634 
Q 3047 847 3047 1241 
Q 3047 1584 2836 1778 
Q 2625 1972 2144 2069 
L 1759 2144 
Q 1053 2284 737 2584 
Q 422 2884 422 3419 
Q 422 4038 858 4394 
Q 1294 4750 2059 4750 
Q 2388 4750 2728 4690 
Q 3069 4631 3425 4513 
z
" transform="scale(0.015625)"/>
      <path id="DejaVuSans-63" d="M 3122 3366 
L 3122 2828 
Q 2878 2963 2633 3030 
Q 2388 3097 2138 3097 
Q 1578 3097 1268 2742 
Q 959 2388 959 1747 
Q 959 1106 1268 751 
Q 1578 397 2138 397 
Q 2388 397 2633 464 
Q 2878 531 3122 666 
L 3122 134 
Q 2881 22 2623 -34 
Q 2366 -91 2075 -91 
Q 1284 -91 818 406 
Q 353 903 353 1747 
Q 353 2603 823 3093 
Q 1294 3584 2113 3584 
Q 2378 3584 2631 3529 
Q 2884 3475 3122 3366 
z
" transform="scale(0.015625)"/>
      <path id="DejaVuSans-6b" d="M 581 4863 
L 1159 4863 
L 1159 1991 
L 2875 3500 
L 3609 3500 
L 1753 1863 
L 3688 0 
L 2938 0 
L 1159 1709 
L 1159 0 
L 581 0 
L 581 4863 
z
" transform="scale(0.015625)"/>
      <path id="DejaVuSans-66" d="M 2375 4863 
L 2375 4384 
L 1825 4384 
Q 1516 4384 1395 4259 
Q 1275 4134 1275 3809 
L 1275 3500 
L 2222 3500 
L 2222 3053 
L 1275 3053 
L 1275 0 
L 697 0 
L 697 3053 
L 147 3053 
L 147 3500 
L 697 3500 
L 697 3744 
Q 697 4328 969 4595 
Q 1241 4863 1831 4863 
L 2375 4863 
z
" transform="scale(0.015625)"/>
      <path id="DejaVuSans-6e" d="M 3513 2113 
L 3513 0 
L 2938 0 
L 2938 2094 
Q 2938 2591 2744 2837 
Q 2550 3084 2163 3084 
Q 1697 3084 1428 2787 
Q 1159 2491 1159 1978 
L 1159 0 
L 581 0 
L 581 3500 
L 1159 3500 
L 1159 2956 
Q 1366 3272 1645 3428 
Q 1925 3584 2291 3584 
Q 2894 3584 3203 3211 
Q 3513 2838 3513 2113 
z
" transform="scale(0.015625)"/>
      <path id="DejaVuSans-3a" d="M 750 794 
L 1409 794 
L 1409 0 
L 750 0 
L 750 794 
z
M 750 3309 
L 1409 3309 
L 1409 2516 
L 750 2516 
L 750 3309 
z
" transform="scale(0.015625)"/>
      <path id="DejaVuSans-52" d="M 2841 2188 
Q 3044 2119 3236 1894 
Q 3428 1669 3622 1275 
L 4263 0 
L 3584 0 
L 2988 1197 
Q 2756 1666 2539 1819 
Q 2322 1972 1947 1972 
L 1259 1972 
L 1259 0 
L 628 0 
L 628 4666 
L 2053 4666 
Q 2853 4666 3247 4331 
Q 3641 3997 3641 3322 
Q 3641 2881 3436 2590 
Q 3231 2300 2841 2188 
z
M 1259 4147 
L 1259 2491 
L 2053 2491 
Q 2509 2491 2742 2702 
Q 2975 2913 2975 3322 
Q 2975 3731 2742 3939 
Q 2509 4147 2053 4147 
L 1259 4147 
z
" transform="scale(0.015625)"/>
      <path id="DejaVuSans-4f" d="M 2522 4238 
Q 1834 4238 1429 3725 
Q 1025 3213 1025 2328 
Q 1025 1447 1429 934 
Q 1834 422 2522 422 
Q 3209 422 3611 934 
Q 4013 1447 4013 2328 
Q 4013 3213 3611 3725 
Q 3209 4238 2522 4238 
z
M 2522 4750 
Q 3503 4750 4090 4092 
Q 4678 3434 4678 2328 
Q 4678 1225 4090 567 
Q 3503 -91 2522 -91 
Q 1538 -91 948 565 
Q 359 1222 359 2328 
Q 359 3434 948 4092 
Q 1538 4750 2522 4750 
z
" transform="scale(0.015625)"/>
      <path id="DejaVuSans-43" d="M 4122 4306 
L 4122 3641 
Q 3803 3938 3442 4084 
Q 3081 4231 2675 4231 
Q 1875 4231 1450 3742 
Q 1025 3253 1025 2328 
Q 1025 1406 1450 917 
Q 1875 428 2675 428 
Q 3081 428 3442 575 
Q 3803 722 4122 1019 
L 4122 359 
Q 3791 134 3420 21 
Q 3050 -91 2638 -91 
Q 1578 -91 968 557 
Q 359 1206 359 2328 
Q 359 3453 968 4101 
Q 1578 4750 2638 4750 
Q 3056 4750 3426 4639 
Q 3797 4528 4122 4306 
z
" transform="scale(0.015625)"/>
     </defs>
     <use xlink:href="#DejaVuSans-53"/>
     <use xlink:href="#DejaVuSans-74" transform="translate(63.476562 0)"/>
     <use xlink:href="#DejaVuSans-6f" transform="translate(102.685547 0)"/>
     <use xlink:href="#DejaVuSans-63" transform="translate(163.867188 0)"/>
     <use xlink:href="#DejaVuSans-6b" transform="translate(218.847656 0)"/>
     <use xlink:href="#DejaVuSans-6f" transform="translate(273.132812 0)"/>
     <use xlink:href="#DejaVuSans-75" transform="translate(334.314453 0)"/>
     <use xlink:href="#DejaVuSans-74" transform="translate(397.693359 0)"/>
     <use xlink:href="#DejaVuSans-20" transform="translate(436.902344 0)"/>
     <use xlink:href="#DejaVuSans-63" transform="translate(468.689453 0)"/>
     <use xlink:href="#DejaVuSans-6c" transform="translate(523.669922 0)"/>
     <use xlink:href="#DejaVuSans-61" transform="translate(551.453125 0)"/>
     <use xlink:href="#DejaVuSans-73" transform="translate(612.732422 0)"/>
     <use xlink:href="#DejaVuSans-73" transform="translate(664.832031 0)"/>
     <use xlink:href="#DejaVuSans-69" transform="translate(716.931641 0)"/>
     <use xlink:href="#DejaVuSans-66" transform="translate(744.714844 0)"/>
     <use xlink:href="#DejaVuSans-69" transform="translate(779.919922 0)"/>
     <use xlink:href="#DejaVuSans-63" transform="translate(807.703125 0)"/>
     <use xlink:href="#DejaVuSans-61" transform="translate(862.683594 0)"/>
     <use xlink:href="#DejaVuSans-74" transform="translate(923.962891 0)"/>
     <use xlink:href="#DejaVuSans-69" transform="translate(963.171875 0)"/>
     <use xlink:href="#DejaVuSans-6f" transform="translate(990.955078 0)"/>
     <use xlink:href="#DejaVuSans-6e" transform="translate(1052.136719 0)"/>
     <use xlink:href="#DejaVuSans-3a" transform="translate(1115.515625 0)"/>
     <use xlink:href="#DejaVuSans-20" transform="translate(1149.207031 0)"/>
     <use xlink:href="#DejaVuSans-52" transform="translate(1180.994141 0)"/>
     <use xlink:href="#DejaVuSans-4f" transform="translate(1250.476562 0)"/>
     <use xlink:href="#DejaVuSans-43" transform="translate(1329.1875 0)"/>
     <use xlink:href="#DejaVuSans-20" transform="translate(1399.011719 0)"/>
     <use xlink:href="#DejaVuSans-63" transform="translate(1430.798828 0)"/>
     <use xlink:href="#DejaVuSans-75" transform="translate(1485.779297 0)"/>
     <use xlink:href="#DejaVuSans-72" transform="translate(1549.158203 0)"/>
     <use xlink:href="#DejaVuSans-76" transform="translate(1590.271484 0)"/>
     <use xlink:href="#DejaVuSans-65" transform="translate(1649.451172 0)"/>
    </g>
   </g>
   <g id="legend_1">
    <g id="line2d_21">
     <path d="M 52.78125 39.416562 
L 62.78125 39.416562 
L 72.78125 39.416562 
" style="fill: none; stroke: #1f4e79; stroke-width: 1.8; stroke-linecap: square"/>
    </g>
    <g id="text_16">
     <!-- Frozen test predictions -->
     <g transform="translate(80.78125 42.916562) scale(0.1 -0.1)">
      <defs>
       <path id="DejaVuSans-7a" d="M 353 3500 
L 3084 3500 
L 3084 2975 
L 922 459 
L 3084 459 
L 3084 0 
L 275 0 
L 275 525 
L 2438 3041 
L 353 3041 
L 353 3500 
z
" transform="scale(0.015625)"/>
       <path id="DejaVuSans-64" d="M 2906 2969 
L 2906 4863 
L 3481 4863 
L 3481 0 
L 2906 0 
L 2906 525 
Q 2725 213 2448 61 
Q 2172 -91 1784 -91 
Q 1150 -91 751 415 
Q 353 922 353 1747 
Q 353 2572 751 3078 
Q 1150 3584 1784 3584 
Q 2172 3584 2448 3432 
Q 2725 3281 2906 2969 
z
M 947 1747 
Q 947 1113 1208 752 
Q 1469 391 1925 391 
Q 2381 391 2643 752 
Q 2906 1113 2906 1747 
Q 2906 2381 2643 2742 
Q 2381 3103 1925 3103 
Q 1469 3103 1208 2742 
Q 947 2381 947 1747 
z
" transform="scale(0.015625)"/>
      </defs>
      <use xlink:href="#DejaVuSans-46"/>
      <use xlink:href="#DejaVuSans-72" transform="translate(50.269531 0)"/>
      <use xlink:href="#DejaVuSans-6f" transform="translate(89.132812 0)"/>
      <use xlink:href="#DejaVuSans-7a" transform="translate(150.314453 0)"/>
      <use xlink:href="#DejaVuSans-65" transform="translate(202.804688 0)"/>
      <use xlink:href="#DejaVuSans-6e" transform="translate(264.328125 0)"/>
      <use xlink:href="#DejaVuSans-20" transform="translate(327.707031 0)"/>
      <use xlink:href="#DejaVuSans-74" transform="translate(359.494141 0)"/>
      <use xlink:href="#DejaVuSans-65" transform="translate(398.703125 0)"/>
      <use xlink:href="#DejaVuSans-73" transform="translate(460.226562 0)"/>
      <use xlink:href="#DejaVuSans-74" transform="translate(512.326172 0)"/>
      <use xlink:href="#DejaVuSans-20" transform="translate(551.535156 0)"/>
      <use xlink:href="#DejaVuSans-70" transform="translate(583.322266 0)"/>
      <use xlink:href="#DejaVuSans-72" transform="translate(646.798828 0)"/>
      <use xlink:href="#DejaVuSans-65" transform="translate(685.662109 0)"/>
      <use xlink:href="#DejaVuSans-64" transform="translate(747.185547 0)"/>
      <use xlink:href="#DejaVuSans-69" transform="translate(810.662109 0)"/>
      <use xlink:href="#DejaVuSans-63" transform="translate(838.445312 0)"/>
      <use xlink:href="#DejaVuSans-74" transform="translate(893.425781 0)"/>
      <use xlink:href="#DejaVuSans-69" transform="translate(932.634766 0)"/>
      <use xlink:href="#DejaVuSans-6f" transform="translate(960.417969 0)"/>
      <use xlink:href="#DejaVuSans-6e" transform="translate(1021.599609 0)"/>
      <use xlink:href="#DejaVuSans-73" transform="translate(1084.978516 0)"/>
     </g>
    </g>
    <g id="line2d_22">
     <path d="M 52.78125 54.094688 
L 62.78125 54.094688 
L 72.78125 54.094688 
" style="fill: none; stroke-dasharray: 5.55,2.4; stroke-dashoffset: 0; stroke: #777777; stroke-width: 1.5"/>
    </g>
    <g id="text_17">
     <!-- Chance -->
     <g transform="translate(80.78125 57.594688) scale(0.1 -0.1)">
      <defs>
       <path id="DejaVuSans-68" d="M 3513 2113 
L 3513 0 
L 2938 0 
L 2938 2094 
Q 2938 2591 2744 2837 
Q 2550 3084 2163 3084 
Q 1697 3084 1428 2787 
Q 1159 2491 1159 1978 
L 1159 0 
L 581 0 
L 581 4863 
L 1159 4863 
L 1159 2956 
Q 1366 3272 1645 3428 
Q 1925 3584 2291 3584 
Q 2894 3584 3203 3211 
Q 3513 2838 3513 2113 
z
" transform="scale(0.015625)"/>
      </defs>
      <use xlink:href="#DejaVuSans-43"/>
      <use xlink:href="#DejaVuSans-68" transform="translate(69.824219 0)"/>
      <use xlink:href="#DejaVuSans-61" transform="translate(133.203125 0)"/>
      <use xlink:href="#DejaVuSans-6e" transform="translate(194.482422 0)"/>
      <use xlink:href="#DejaVuSans-63" transform="translate(257.861328 0)"/>
      <use xlink:href="#DejaVuSans-65" transform="translate(312.841797 0)"/>
     </g>
    </g>
   </g>
  </g>
 </g>
 <defs>
  <clipPath id="p1eb117bead">
   <rect x="43.78125" y="26.318125" width="467.866708" height="254.125145"/>
  </clipPath>
 </defs>
</svg>
